PathFileType	4	(X/Y/Z)	D:\TRACE\spot_10-12-23\spot_body_motion_3_4-platform.trc
DataRate	CameraRate	NumFrames	NumMarkers	Units	OrigDataRate	OrigDataStartFrame	OrigNumFrames
100.00	100.00	      67	5	mm	100.00	6126	      7000
Frame#	Time	Left_Front			Right_Front			Left_Aft			Right_Aft			Post			
		X1	Y1	Z1	X2	Y2	Z2	X3	Y3	Z3	X4	Y4	Z4	X5	Y5	Z5	

6126	61.250	-794.85059	24.20701	-636.99042	777.64929	28.68818	-630.15112	-711.69415	-6.93087	500.49857	705.76971	-4.44846	586.51062	-12.30167	770.14075	-935.62000	
6127	61.260	-794.88196	24.19636	-636.95599	777.64752	28.64187	-630.18109	-711.67108	-6.93005	500.53354	705.77362	-4.42035	586.53735	-12.35097	770.08252	-935.57813	
6128	61.270	-794.69818	24.04013	-637.02374	777.67914	28.58380	-630.21448	-711.66174	-6.89096	500.49368	705.80682	-4.39770	586.52216	-12.37166	770.02710	-935.50476	
6129	61.280	-794.81537	24.10535	-637.02161	777.72028	28.51672	-630.21570	-711.67834	-6.85056	500.53311	705.77600	-4.36544	586.50751	-12.39486	769.97736	-935.44232	
6130	61.290	-794.74896	24.04704	-637.09985	777.72815	28.46596	-630.20514	-711.73999	-6.79224	500.48666	705.75134	-4.34372	586.49969	-12.38242	769.88348	-935.37878	
6131	61.300	-794.87500	23.95544	-637.06689	777.70776	28.35244	-630.28522	-711.78284	-6.68821	500.46835	705.72888	-4.29897	586.47174	-12.40782	769.77826	-935.37634	
6132	61.310	-794.88324	23.88631	-637.12408	777.67371	28.28010	-630.31036	-711.78143	-6.52510	500.45428	705.68408	-4.25387	586.43585	-12.44951	769.53839	-935.43396	
6133	61.320	-794.95947	23.80754	-637.17621	777.75494	28.13163	-630.29004	-711.81012	-6.44227	500.44855	705.67426	-4.17959	586.39014	-12.41835	769.36053	-935.67688	
6134	61.330	-794.99188	23.69936	-637.20013	777.68774	28.00573	-630.37024	-711.79474	-6.34230	500.38098	705.64392	-4.09561	586.31531	-12.34143	769.10742	-935.94690	
6135	61.340	-795.04846	23.64113	-637.26215	777.71362	27.81226	-630.43317	-711.80072	-6.30147	500.35620	705.57501	-3.97340	586.29517	-12.43554	768.77411	-936.33295	
6136	61.350	-795.09363	23.52608	-637.28931	777.74078	27.62641	-630.46381	-711.83771	-6.25251	500.33643	705.57159	-3.92031	586.26349	-12.37087	768.57684	-936.59924	
6137	61.360	-795.11499	23.44687	-637.32428	777.68048	27.50252	-630.49841	-711.82208	-6.13401	500.28867	705.58270	-3.75705	586.24048	-12.25510	768.34344	-936.85406	
6138	61.370	-795.09619	23.37280	-637.38025	777.71106	27.37654	-630.50360	-711.86475	-6.07910	500.26199	705.54681	-3.60363	586.23566	-12.24697	768.17096	-937.12732	
6139	61.380	-795.09552	23.22717	-637.39972	777.73273	27.24278	-630.54553	-711.84882	-5.97706	500.26126	705.56519	-3.38221	586.18451	-12.18598	768.03241	-937.38086	
6140	61.390	-795.06250	23.05872	-637.43359	777.70148	27.18731	-630.52209	-711.83344	-5.89459	500.24057	705.51318	-3.24566	586.17841	-12.18422	767.90320	-937.63391	
6141	61.400	-795.03436	22.70420	-637.46344	777.72650	26.98512	-630.52997	-711.79150	-5.81417	500.19016	705.49243	-3.13806	586.16968	-12.11771	767.72992	-937.87347	
6142	61.410	-794.92444	22.48586	-637.54285	777.77411	26.82321	-630.58380	-711.77783	-5.65946	499.92392	705.58551	-3.03907	586.13794	-11.97862	767.51471	-938.02655	
6143	61.420	-794.71625	22.22934	-637.61584	777.82568	26.60615	-630.67102	-711.63794	-5.52538	499.88385	705.77917	-2.87276	586.12280	-11.79462	767.19543	-938.21722	
6144	61.430	-794.51013	22.02331	-637.63153	778.01685	26.37439	-630.73145	-711.38593	-5.32425	500.05157	705.96088	-2.70547	586.10065	-11.50941	766.87720	-938.32635	
6145	61.440	-794.31390	21.69192	-637.62701	778.19946	26.27250	-630.79791	-711.26233	-5.27449	499.75571	706.22308	-2.40447	586.05927	-11.38624	766.57837	-938.36224	
6146	61.450	-794.28143	21.60548	-637.72211	778.29376	25.95820	-630.94312	-711.00854	-5.23540	499.91977	706.42206	-2.33518	586.01276	-11.24736	766.36877	-938.45520	
6147	61.460	-794.21991	21.34033	-637.73193	778.33130	25.79048	-631.03320	-710.93420	-5.13539	499.92831	706.51147	-2.18121	585.99548	-11.11812	766.18658	-938.60828	
6148	61.470	-794.16235	21.30246	-637.79968	778.42090	25.71341	-631.04004	-710.97449	-4.98377	499.63647	706.57605	-2.09576	585.94244	-11.03263	765.93188	-938.84076	
6149	61.480	-794.11145	21.30866	-637.82806	778.44879	25.66546	-631.08234	-710.94019	-4.74654	499.68680	706.63763	-1.98660	585.93854	-11.05552	765.74432	-939.12848	
6150	61.490	-794.08020	21.19551	-637.86115	778.58124	25.47290	-631.06317	-710.97644	-4.59957	499.62613	706.75183	-1.89501	585.90979	-10.97768	765.46777	-939.59467	
6151	61.500	-794.03235	21.10704	-637.90137	778.71161	25.21754	-630.99451	-710.79596	-4.47044	499.69980	706.81451	-1.77231	585.88086	-11.00067	765.29694	-939.98193	
6152	61.510	-793.91974	20.91934	-637.96814	778.82697	25.16217	-631.08533	-710.68488	-4.50538	499.63605	706.97742	-1.64605	585.80157	-10.95423	764.90015	-940.36078	
6153	61.520	-793.76758	20.62475	-638.12189	779.10004	24.96151	-631.00720	-710.56177	-4.44666	499.63376	707.02032	-1.55790	585.81659	-10.99360	764.68451	-940.68756	
6154	61.530	-793.66498	20.52987	-638.17944	779.29730	24.76519	-631.04883	-710.36066	-4.31724	499.59509	707.15778	-1.42531	585.74994	-10.91939	764.40173	-940.91675	
6155	61.540	-793.58179	20.42576	-638.20709	779.43542	24.60441	-631.13519	-710.29163	-4.12319	499.60193	707.25287	-1.20176	585.70215	-10.82477	764.18774	-941.14661	
6156	61.550	-793.45398	20.28024	-638.25165	779.56781	24.55146	-631.13715	-710.13794	-3.90244	499.51266	707.45062	-0.98397	585.65417	-10.66971	764.04236	-941.30164	
6157	61.560	-793.31403	20.02597	-638.25140	779.60699	24.39555	-631.26453	-710.03015	-3.86003	499.50986	707.47937	-0.85261	585.62531	-10.60429	763.88446	-941.50085	
6158	61.570	-793.36432	19.95354	-638.24768	779.54291	24.23946	-631.40527	-709.95245	-3.79420	499.40021	707.46387	-0.78260	585.56213	-10.59907	763.72729	-941.60370	
6159	61.580	-793.31427	19.85380	-638.28369	779.57495	24.08509	-631.48254	-709.83398	-3.63446	499.33627	707.52991	-0.70912	585.53400	-10.57794	763.54095	-941.72766	
6160	61.590	-793.14783	19.70745	-638.29175	779.67291	24.01901	-631.51520	-709.75848	-3.57368	499.29709	707.60345	-0.63528	585.49860	-10.43845	763.40735	-941.88373	
6161	61.600	-793.12335	19.69568	-638.30035	779.78796	23.96665	-631.54150	-709.69904	-3.45015	499.31870	707.71564	-0.48294	585.44342	-10.36031	763.24457	-941.95892	
6162	61.610	-792.97498	19.53878	-638.35333	779.85632	23.87708	-631.56476	-709.59387	-3.38896	499.27017	707.85162	-0.34595	585.42212	-10.11163	762.99780	-942.20380	
6163	61.620	-792.92566	19.42878	-638.38525	779.87622	23.72010	-631.59753	-709.56671	-3.34123	499.22507	707.84991	-0.34285	585.40118	-10.10850	762.82361	-942.33282	
6164	61.630	-792.76617	19.29007	-638.44830	779.98651	23.57792	-631.59137	-709.51862	-3.34718	499.17255	707.87299	-0.28453	585.36865	-9.93711	762.56366	-942.47015	
6165	61.640	-792.71454	19.17928	-638.45135	780.00061	23.45627	-631.69189	-709.47565	-3.25213	499.20682	707.91071	-0.21648	585.38165	-9.92740	762.37549	-942.64655	
6166	61.650	-792.69775	19.12017	-638.47504	780.05786	23.37945	-631.71741	-709.45404	-3.20543	499.17636	708.01465	-0.03726	585.34802	-9.83535	762.21246	-942.81152	
6167	61.660	-792.64087	19.08999	-638.52753	780.09320	23.35468	-631.67346	-709.44806	-3.08420	499.13708	708.04065	0.01396	585.32587	-9.71967	762.15204	-942.95410	
6168	61.670	-792.63385	19.03077	-638.53992	780.13586	23.23577	-631.74921	-709.42737	-3.04249	499.09845	708.05328	0.04802	585.29700	-9.71641	762.06238	-943.06573	
6169	61.680	-792.59882	18.90794	-638.60748	780.12994	23.06211	-631.76959	-709.38129	-3.02276	499.07751	708.06012	0.06505	585.28210	-9.67068	761.85706	-943.22729	
6170	61.690	-792.58667	18.82211	-638.65039	780.17798	22.96562	-631.77142	-709.38586	-3.04248	499.07294	708.07007	0.12306	585.30835	-9.66827	761.79285	-943.37598	
6171	61.700	-792.52118	18.68312	-638.59064	780.15912	22.94073	-631.80109	-709.37402	-3.01130	499.05444	708.09534	0.15672	585.27716	-9.62324	761.69391	-943.48505	
6172	61.710	-792.53827	18.77477	-638.65833	780.17572	22.94228	-631.85291	-709.35809	-2.92419	499.03976	708.06128	0.23004	585.29132	-9.64822	761.67322	-943.50854	
6173	61.720	-792.53363	18.73516	-638.64441	780.18237	22.94024	-631.84698	-709.40356	-2.85287	499.05072	708.05560	0.20111	585.28058	-9.60062	761.69183	-943.57056	
6174	61.730	-792.56390	18.69116	-638.63159	780.09265	22.95257	-631.86169	-709.39258	-2.91141	499.10538	708.09290	0.19774	585.24530	-9.66197	761.65167	-943.52271	
6175	61.740	-792.56982	18.69060	-638.63831	780.12085	22.87401	-631.85815	-709.40631	-2.92830	499.04572	708.06403	0.16012	585.27332	-9.69330	761.61407	-943.45392	
6176	61.750	-792.55963	18.65269	-638.67828	780.14746	22.86268	-631.83887	-709.39978	-2.93523	499.04636	708.04053	0.16565	585.30280	-9.75812	761.61816	-943.42096	
6177	61.760	-792.52759	18.70370	-638.68481	780.08319	22.91698	-631.83191	-709.42212	-2.92249	499.01700	708.04907	0.20221	585.30872	-9.71000	761.67981	-943.32727	
6178	61.770	-792.55151	18.77795	-638.63171	780.16449	22.98516	-631.80048	-709.39758	-2.88927	499.06342	708.06940	0.20908	585.30835	-9.68775	761.72974	-943.23450	
6179	61.780	-792.57141	18.82463	-638.60150	780.08405	23.00831	-631.83911	-709.40234	-2.85162	499.06644	708.05688	0.19271	585.27850	-9.75089	761.72345	-943.11066	
6180	61.790	-792.55640	18.73553	-638.62927	780.05859	22.89482	-631.87079	-709.35974	-2.91848	499.10199	708.10858	0.14514	585.27051	-9.75916	761.69861	-943.01495	
6181	61.800	-792.52777	18.59257	-638.62360	779.97559	22.87992	-631.87219	-709.41272	-2.97806	499.05099	708.02557	0.17674	585.28607	-9.80166	761.57489	-942.94733	
6182	61.810	-792.64026	18.58600	-638.63599	779.90253	22.84459	-631.85541	-709.52435	-2.93078	499.04819	707.97455	0.23848	585.29004	-9.86023	761.60022	-942.94183	
6183	61.820	-792.92615	18.77019	-638.67328	779.74622	22.87442	-631.79877	-709.76660	-2.87052	499.05444	707.77734	0.26427	585.27985	-10.05951	761.59906	-943.03125	
6184	61.830	-793.18329	18.81503	-638.57837	779.58911	22.88147	-631.76343	-710.10107	-2.79237	499.06271	707.63544	0.24784	585.28894	-10.35265	761.69989	-943.14032	
6185	61.840	-793.37366	18.88077	-638.55957	779.28375	22.99862	-631.74713	-710.26630	-2.79838	499.08948	707.36487	0.25036	585.31427	-10.56256	761.77716	-943.21094	
6186	61.850	-793.63318	18.96731	-638.54755	779.09204	23.09295	-631.66541	-710.40448	-2.90872	499.11078	707.11371	0.10374	585.31995	-10.83404	761.83075	-943.33179	
6187	61.860	-793.80688	19.13489	-638.55444	778.93427	23.17654	-631.58667	-710.47314	-2.93974	499.14731	706.92651	-0.01801	585.36615	-10.92215	761.99091	-943.32465	
6188	61.870	-793.81970	19.03664	-638.46906	778.85785	23.25890	-631.63287	-710.56793	-3.07909	499.20496	706.84149	-0.11502	585.37421	-10.95479	762.17365	-943.30487	
6189	61.880	-793.99774	19.22927	-638.43762	778.75653	23.43716	-631.58569	-710.73242	-3.17393	499.26843	706.68011	-0.21251	585.38794	-11.18269	762.41315	-943.15533	
6190	61.890	-794.21027	19.36296	-638.44843	778.59076	23.57153	-631.47729	-710.96912	-3.32965	499.29480	706.46423	-0.37604	585.45349	-11.35802	762.63062	-942.93652	
6191	61.900	-794.47455	19.43657	-638.41956	778.30170	23.74898	-631.41046	-711.34344	-3.40986	499.30563	706.21106	-0.50841	585.47864	-11.49713	762.91956	-942.62537	
6192	61.910	-794.67841	19.52819	-638.31494	777.95874	23.88222	-631.43298	-711.59460	-3.56024	499.33310	705.80774	-0.65156	585.47772	-11.68798	763.13257	-942.17786	
